<svg width="334" height="105" viewBox="0 0 334 105" fill="none" xmlns="http://www.w3.org/2000/svg">
<mask id="path-1-outside-1_1_58" maskUnits="userSpaceOnUse" x="1" y="23.6604" width="335" height="62" fill="black">
<rect fill="white" x="1" y="23.6604" width="335" height="62"/>
<path d="M20.4747 69.0974C34.4129 69.0013 45.948 68.761 55.0799 68.3765C54.4551 70.8277 54.0706 73.1828 53.9264 75.4417C53.7822 77.7007 53.7101 80.4402 53.7101 83.6604H2.88376C3.26826 74.3363 3.46052 65.6129 3.46052 57.4903C3.46052 49.3677 3.26826 40.6443 2.88376 31.3201H20.4747V69.0974ZM97.9167 65.6369H74.414C74.7985 67.7517 75.7358 69.4819 77.2257 70.8277C78.7637 72.1254 80.9265 72.7742 83.7142 72.7742C85.7328 72.7742 87.6313 72.3897 89.4096 71.6207C91.1879 70.8037 92.6058 69.6742 93.6632 68.2323C96.8834 69.8184 101.161 71.5246 106.496 73.351C105.006 76.7154 102.29 79.4069 98.3493 81.4255C94.4562 83.3961 89.3615 84.3814 83.0653 84.3814C74.8947 84.3814 68.8388 82.5069 64.8976 78.758C61.0045 74.9611 59.058 69.9866 59.058 63.8346C59.058 57.8267 61.0045 52.9484 64.8976 49.1995C68.7907 45.4506 74.8466 43.5761 83.0653 43.5761C87.9677 43.5761 92.2213 44.3932 95.826 46.0273C99.4307 47.6615 102.194 49.9444 104.117 52.8763C106.039 55.76 107.001 59.0764 107.001 62.8252C107.001 64.0749 106.952 65.0121 106.856 65.6369H97.9167ZM84.0746 54.4623C81.6715 54.4623 79.7009 54.9189 78.1629 55.8321C76.6249 56.7453 75.5435 57.9949 74.9187 59.581H91.9329C91.3561 58.043 90.4189 56.8174 89.1212 55.9042C87.8235 54.943 86.1413 54.4623 84.0746 54.4623ZM159.529 27.5712C159.241 36.5109 159.096 45.8591 159.096 55.6158C159.096 65.2764 159.241 74.6246 159.529 83.6604H143.236L143.452 75.0091C142.058 78.2293 140.04 80.6084 137.396 82.1465C134.753 83.6364 131.629 84.3814 128.024 84.3814C124.9 84.3814 122.088 83.4922 119.589 81.7139C117.09 79.9356 115.143 77.5324 113.749 74.5045C112.355 71.4285 111.659 68.0641 111.659 64.4113C111.659 60.8066 112.355 57.4182 113.749 54.246C115.143 51.0258 117.09 48.4545 119.589 46.532C122.136 44.5614 125.02 43.5761 128.24 43.5761C131.989 43.5761 135.185 44.3692 137.829 45.9552C140.52 47.4932 142.515 49.8964 143.812 53.1646C143.812 50.4251 143.716 46.0273 143.524 39.9714C143.332 34.1078 143.236 29.9744 143.236 27.5712H159.529ZM135.594 72.2696C137.949 72.2696 139.871 71.6207 141.361 70.323C142.851 68.9773 143.596 66.8625 143.596 63.9787C143.596 61.4314 142.851 59.557 141.361 58.3554C139.871 57.1538 137.997 56.5531 135.738 56.5531C133.575 56.5531 131.749 57.25 130.259 58.6438C128.817 59.9895 128.096 61.7679 128.096 63.9787C128.096 66.4299 128.769 68.4245 130.115 69.9626C131.46 71.5006 133.287 72.2696 135.594 72.2696ZM181.617 40.9807C181.521 41.2211 181.473 41.5335 181.473 41.918C181.473 42.687 181.785 43.3118 182.41 43.7924C183.083 44.225 183.996 44.4413 185.149 44.4413H194.666V57.2019C190.677 56.8655 187.504 56.6732 185.149 56.6252C185.197 65.5648 185.39 74.5766 185.726 83.6604H168.64C168.688 77.989 168.712 69.0494 168.712 56.8414C167.703 56.8895 165.972 57.0097 163.521 57.2019V44.4413H168.64V43.0715C168.64 39.3226 169.409 36.1264 170.947 33.483C172.485 30.8395 174.6 28.8449 177.291 27.4991C180.031 26.1534 183.155 25.4805 186.663 25.4805C189.499 25.4805 192.359 25.889 195.243 26.7061C194.281 30.2147 193.32 34.6124 192.359 39.8993L191.926 42.0622C190.869 41.149 189.691 40.4761 188.394 40.0435C187.144 39.5629 185.991 39.3226 184.933 39.3226C184.068 39.3226 183.347 39.4668 182.77 39.7551C182.194 40.0435 181.809 40.452 181.617 40.9807ZM216.51 54.8228C216.462 57.7066 216.438 62.1283 216.438 68.0881C216.438 75.2495 216.486 80.4402 216.582 83.6604H199.568L199.64 75.5138C199.736 66.5741 199.785 59.6771 199.785 54.8228C199.785 50.2088 199.736 43.6723 199.64 35.2132L199.568 27.4271H216.582C216.486 34.252 216.438 39.8272 216.438 44.1529C216.438 48.9592 216.462 52.5158 216.51 54.8228ZM245.934 84.3814C237.716 84.3814 231.66 82.5069 227.767 78.758C223.922 74.9611 221.999 69.9866 221.999 63.8346C221.999 57.8267 223.922 52.9484 227.767 49.1995C231.66 45.4506 237.716 43.5761 245.934 43.5761C251.461 43.5761 256.076 44.4893 259.776 46.3157C263.525 48.094 266.289 50.5212 268.067 53.5972C269.845 56.6252 270.735 60.0376 270.735 63.8346C270.735 70.0347 268.668 75.0091 264.535 78.758C260.449 82.5069 254.249 84.3814 245.934 84.3814ZM246.223 72.1254C249.347 72.1254 251.678 71.3804 253.216 69.8905C254.754 68.4005 255.523 66.4059 255.523 63.9067C255.523 61.5516 254.754 59.6291 253.216 58.1391C251.678 56.6011 249.347 55.8321 246.223 55.8321C243.099 55.8321 240.816 56.5771 239.374 58.067C237.932 59.557 237.211 61.5035 237.211 63.9067C237.211 66.4059 237.932 68.4005 239.374 69.8905C240.816 71.3804 243.099 72.1254 246.223 72.1254ZM313.291 72.5579L319.491 44.2971H333.838L325.835 83.6604H306.586L302.044 65.2764L296.926 83.6604H278.397L270.395 44.2971H284.742L290.87 72.4858L295.051 44.2971H309.254L313.291 72.5579Z"/>
</mask>
<path d="M20.4747 69.0974H19.3987V70.1809L20.4821 70.1734L20.4747 69.0974ZM55.0799 68.3765L56.1226 68.6423L56.4799 67.2406L55.0346 67.3014L55.0799 68.3765ZM53.9264 75.4417L52.8525 75.3732L53.9264 75.4417ZM53.7101 83.6604V84.7365H54.7861V83.6604H53.7101ZM2.88376 83.6604L1.80865 83.6161L1.76245 84.7365H2.88376V83.6604ZM2.88376 31.3201V30.2441H1.76245L1.80865 31.3645L2.88376 31.3201ZM20.4747 31.3201H21.5507V30.2441H20.4747V31.3201ZM20.4821 70.1734C34.4272 70.0773 45.9759 69.8368 55.1251 69.4516L55.0346 67.3014C45.92 67.6852 34.3987 67.9253 20.4673 68.0214L20.4821 70.1734ZM54.0372 68.1107C53.3978 70.6191 53.0014 73.0404 52.8525 75.3732L55.0002 75.5103C55.1397 73.3251 55.5123 71.0363 56.1226 68.6423L54.0372 68.1107ZM52.8525 75.3732C52.7064 77.6622 52.6341 80.426 52.6341 83.6604H54.7861C54.7861 80.4544 54.8579 77.7391 55.0002 75.5102L52.8525 75.3732ZM53.7101 82.5844H2.88376V84.7365H53.7101V82.5844ZM3.95888 83.7048C4.3439 74.368 4.53655 65.6296 4.53655 57.4903H2.38448C2.38448 65.5961 2.19263 74.3046 1.80865 83.6161L3.95888 83.7048ZM4.53655 57.4903C4.53655 49.3509 4.3439 40.6126 3.95888 31.2758L1.80865 31.3645C2.19263 40.676 2.38448 49.3844 2.38448 57.4903H4.53655ZM2.88376 32.3962H20.4747V30.2441H2.88376V32.3962ZM19.3987 31.3201V69.0974H21.5507V31.3201H19.3987ZM74.414 65.6369V64.5609H73.1247L73.3554 65.8294L74.414 65.6369ZM77.2257 70.8277L76.5045 71.6262L76.5179 71.6384L76.5318 71.6501L77.2257 70.8277ZM89.4096 71.6207L89.8367 72.6084L89.8478 72.6035L89.8588 72.5985L89.4096 71.6207ZM93.6632 68.2323L94.1386 67.267L93.3291 66.8683L92.7954 67.596L93.6632 68.2323ZM106.496 73.351L107.48 73.7867L107.955 72.7132L106.844 72.3329L106.496 73.351ZM98.3493 81.4255L98.8352 82.3856L98.8398 82.3832L98.3493 81.4255ZM64.8976 78.758L64.1463 79.5284L64.156 79.5377L64.8976 78.758ZM64.8976 49.1995L65.644 49.9746L64.8976 49.1995ZM95.826 46.0273L95.3817 47.0074L95.826 46.0273ZM104.117 52.8763L103.217 53.4663L103.221 53.4731L104.117 52.8763ZM106.856 65.6369V66.7129H107.78L107.92 65.8005L106.856 65.6369ZM78.1629 55.8321L78.7123 56.7574L78.1629 55.8321ZM74.9187 59.581L73.9175 59.1866L73.3383 60.657H74.9187V59.581ZM91.9329 59.581V60.657H93.4856L92.9404 59.2032L91.9329 59.581ZM89.1212 55.9042L88.4807 56.7689L88.4913 56.7767L88.502 56.7842L89.1212 55.9042ZM97.9167 64.5609H74.414V66.7129H97.9167V64.5609ZM73.3554 65.8294C73.7792 68.1603 74.8254 70.1096 76.5045 71.6262L77.947 70.0292C76.6461 68.8542 75.8179 67.3431 75.4727 65.4444L73.3554 65.8294ZM76.5318 71.6501C78.3272 73.1649 80.7698 73.8503 83.7142 73.8503V71.6982C81.0832 71.6982 79.2002 71.0858 77.9196 70.0053L76.5318 71.6501ZM83.7142 73.8503C85.8734 73.8503 87.9179 73.4381 89.8367 72.6084L88.9825 70.6331C87.3447 71.3413 85.5922 71.6982 83.7142 71.6982V73.8503ZM89.8588 72.5985C91.7873 71.7124 93.3553 70.4717 94.5309 68.8686L92.7954 67.596C91.8563 68.8766 90.5885 69.8949 88.9604 70.643L89.8588 72.5985ZM93.1877 69.1976C96.4653 70.812 100.791 72.5351 106.147 74.369L106.844 72.3329C101.531 70.5141 97.3014 68.8248 94.1386 67.267L93.1877 69.1976ZM105.512 72.9153C104.141 76.0109 101.627 78.5378 97.8587 80.4678L98.8398 82.3832C102.954 80.2759 105.871 77.4198 107.48 73.7867L105.512 72.9153ZM97.8633 80.4655C94.1726 82.3336 89.2623 83.3053 83.0653 83.3053V85.4574C89.4608 85.4574 94.7398 84.4586 98.8352 82.3856L97.8633 80.4655ZM83.0653 83.3053C75.0348 83.3053 69.2998 81.4604 65.6392 77.9784L64.156 79.5377C68.3777 83.5535 74.7545 85.4574 83.0653 85.4574V83.3053ZM65.6489 77.9877C61.9915 74.4206 60.134 69.7382 60.134 63.8346H57.982C57.982 70.235 60.0176 75.5015 64.1463 79.5284L65.6489 77.9877ZM60.134 63.8346C60.134 58.0832 61.9861 53.4969 65.644 49.9746L64.1512 48.4244C60.0229 52.3998 57.982 57.5703 57.982 63.8346H60.134ZM65.644 49.9746C69.2536 46.4986 74.9833 44.6522 83.0653 44.6522V42.5001C74.7099 42.5001 68.3278 44.4025 64.1512 48.4244L65.644 49.9746ZM83.0653 44.6522C87.8501 44.6522 91.9457 45.4497 95.3817 47.0074L96.2703 45.0473C92.4968 43.3367 88.0854 42.5001 83.0653 42.5001V44.6522ZM95.3817 47.0074C98.8253 48.5684 101.42 50.7263 103.217 53.4663L105.017 52.2862C102.968 49.1626 100.036 46.7545 96.2703 45.0473L95.3817 47.0074ZM103.221 53.4731C105.016 56.1656 105.925 59.2706 105.925 62.8252H108.077C108.077 58.8821 107.062 55.3544 105.012 52.2794L103.221 53.4731ZM105.925 62.8252C105.925 64.0621 105.876 64.9324 105.793 65.4733L107.92 65.8005C108.029 65.0918 108.077 64.0876 108.077 62.8252H105.925ZM106.856 64.5609H97.9167V66.7129H106.856V64.5609ZM84.0746 53.3863C81.5424 53.3863 79.3655 53.8667 77.6136 54.9069L78.7123 56.7574C80.0364 55.9712 81.8007 55.5384 84.0746 55.5384V53.3863ZM77.6136 54.9069C75.8811 55.9355 74.6344 57.3669 73.9175 59.1866L75.9198 59.9754C76.4526 58.623 77.3687 57.5551 78.7123 56.7574L77.6136 54.9069ZM74.9187 60.657H91.9329V58.505H74.9187V60.657ZM92.9404 59.2032C92.2905 57.4701 91.2216 56.0665 89.7405 55.0242L88.502 56.7842C89.6162 57.5683 90.4218 58.6159 90.9254 59.9588L92.9404 59.2032ZM89.7617 55.0396C88.2326 53.9069 86.3071 53.3863 84.0746 53.3863V55.5384C85.9756 55.5384 87.4145 55.979 88.4807 56.7689L89.7617 55.0396ZM159.529 27.5712L160.604 27.6059L160.64 26.4952H159.529V27.5712ZM159.529 83.6604V84.7365H160.64L160.604 83.6261L159.529 83.6604ZM143.236 83.6604L142.16 83.6335L142.132 84.7365H143.236V83.6604ZM143.452 75.0091L144.528 75.036L142.464 74.5817L143.452 75.0091ZM137.396 82.1465L137.924 83.0838L137.931 83.0802L137.937 83.0765L137.396 82.1465ZM119.589 81.7139L118.965 82.5906L119.589 81.7139ZM113.749 74.5045L112.769 74.9486L112.772 74.9544L113.749 74.5045ZM113.749 54.246L114.734 54.6789L114.737 54.6735L113.749 54.246ZM119.589 46.532L120.245 47.3849L120.247 47.3831L119.589 46.532ZM137.829 45.9552L137.275 46.8779L137.285 46.8838L137.295 46.8895L137.829 45.9552ZM143.812 53.1646L142.812 53.5617L144.889 53.1646H143.812ZM143.524 39.9714L144.6 39.9373L144.6 39.9362L143.524 39.9714ZM143.236 27.5712V26.4952H142.16V27.5712H143.236ZM141.361 70.323L142.068 71.1344L142.075 71.1281L142.083 71.1216L141.361 70.323ZM141.361 58.3554L142.037 57.5178L141.361 58.3554ZM130.259 58.6438L130.993 59.4304L130.994 59.4296L130.259 58.6438ZM158.454 27.5365C158.165 36.4888 158.02 45.8486 158.02 55.6158H160.172C160.172 45.8696 160.316 36.5331 160.604 27.6059L158.454 27.5365ZM158.02 55.6158C158.02 65.2871 158.165 74.6468 158.453 83.6948L160.604 83.6261C160.316 74.6025 160.172 65.2658 160.172 55.6158H158.02ZM159.529 82.5844H143.236V84.7365H159.529V82.5844ZM144.311 83.6873L144.528 75.036L142.376 74.9822L142.16 83.6335L144.311 83.6873ZM142.464 74.5817C141.148 77.6233 139.271 79.8105 136.855 81.2164L137.937 83.0765C140.808 81.4064 142.968 78.8354 144.439 75.4366L142.464 74.5817ZM136.868 81.2091C134.413 82.5924 131.478 83.3053 128.024 83.3053V85.4574C131.779 85.4574 135.092 84.6804 137.924 83.0838L136.868 81.2091ZM128.024 83.3053C125.119 83.3053 122.526 82.4833 120.213 80.8372L118.965 82.5906C121.65 84.5011 124.681 85.4574 128.024 85.4574V83.3053ZM120.213 80.8372C117.88 79.1771 116.049 76.927 114.727 74.0546L112.772 74.9544C114.237 78.1378 116.3 80.694 118.965 82.5906L120.213 80.8372ZM114.729 74.0604C113.404 71.135 112.735 67.9236 112.735 64.4113H110.582C110.582 68.2046 111.307 71.722 112.769 74.9486L114.729 74.0604ZM112.735 64.4113C112.735 60.9495 113.403 57.7091 114.734 54.6789L112.764 53.8132C111.308 57.1273 110.582 60.6637 110.582 64.4113H112.735ZM114.737 54.6735C116.066 51.6016 117.906 49.1838 120.245 47.3849L118.933 45.6791C116.273 47.7251 114.22 50.4501 112.762 53.8186L114.737 54.6735ZM120.247 47.3831C122.606 45.5583 125.258 44.6522 128.24 44.6522V42.5001C124.782 42.5001 121.666 43.5645 118.93 45.6809L120.247 47.3831ZM128.24 44.6522C131.836 44.6522 134.832 45.4119 137.275 46.8779L138.382 45.0325C135.539 43.3265 132.142 42.5001 128.24 42.5001V44.6522ZM137.295 46.8895C139.746 48.2904 141.592 50.4881 142.812 53.5617L144.813 52.7675C143.438 49.3047 141.294 46.6961 138.363 45.021L137.295 46.8895ZM144.889 53.1646C144.889 50.4067 144.792 45.9944 144.6 39.9373L142.449 40.0056C142.641 46.0603 142.736 50.4434 142.736 53.1646H144.889ZM144.6 39.9362C144.407 34.0724 144.312 29.9548 144.312 27.5712H142.16C142.16 29.9939 142.256 34.1432 142.449 40.0067L144.6 39.9362ZM143.236 28.6473H159.529V26.4952H143.236V28.6473ZM135.594 73.3456C138.156 73.3456 140.346 72.6343 142.068 71.1344L140.655 69.5116C139.397 70.6071 137.741 71.1935 135.594 71.1935V73.3456ZM142.083 71.1216C143.882 69.4958 144.672 67.0312 144.672 63.9787H142.52C142.52 66.6938 141.82 68.4588 140.64 69.5245L142.083 71.1216ZM144.672 63.9787C144.672 61.2214 143.858 58.9865 142.037 57.5178L140.686 59.193C141.845 60.1275 142.52 61.6415 142.52 63.9787H144.672ZM142.037 57.5178C140.322 56.1353 138.196 55.477 135.738 55.477V57.6291C137.797 57.6291 139.42 58.1724 140.686 59.193L142.037 57.5178ZM135.738 55.477C133.32 55.477 131.226 56.2657 129.524 57.858L130.994 59.4296C132.272 58.2342 133.83 57.6291 135.738 57.6291V55.477ZM129.525 57.8572C127.837 59.4321 127.02 61.5095 127.02 63.9787H129.172C129.172 62.0263 129.797 60.547 130.993 59.4304L129.525 57.8572ZM127.02 63.9787C127.02 66.636 127.755 68.8995 129.305 70.6711L130.924 69.254C129.783 67.9496 129.172 66.2239 129.172 63.9787H127.02ZM129.305 70.6711C130.883 72.4742 133.021 73.3456 135.594 73.3456V71.1935C133.552 71.1935 132.038 70.5269 130.924 69.254L129.305 70.6711ZM181.617 40.9807L182.616 41.3804L182.622 41.3645L182.628 41.3485L181.617 40.9807ZM182.41 43.7924L181.754 44.6453L181.79 44.673L181.828 44.6975L182.41 43.7924ZM194.666 44.4413H195.742V43.3652H194.666V44.4413ZM194.666 57.2019L194.575 58.2741L195.742 58.3725V57.2019H194.666ZM185.149 56.6252L185.171 55.5493L184.067 55.5268L184.073 56.6309L185.149 56.6252ZM185.726 83.6604V84.7365H186.843L186.801 83.6206L185.726 83.6604ZM168.64 83.6604L167.564 83.6513L167.555 84.7365H168.64V83.6604ZM168.712 56.8414H169.788V55.7129L168.661 55.7666L168.712 56.8414ZM163.521 57.2019H162.445V58.3656L163.605 58.2746L163.521 57.2019ZM163.521 44.4413V43.3652H162.445V44.4413H163.521ZM168.64 44.4413V45.5173H169.716V44.4413H168.64ZM177.291 27.4991L176.817 26.5333L176.81 26.5367L177.291 27.4991ZM195.243 26.7061L196.28 26.9904L196.562 25.9616L195.536 25.6708L195.243 26.7061ZM192.359 39.8993L193.414 40.1104L193.416 40.1011L193.417 40.0918L192.359 39.8993ZM191.926 42.0621L191.223 42.8765L192.619 44.0826L192.981 42.2732L191.926 42.0621ZM188.394 40.0435L188.007 41.0478L188.03 41.0566L188.053 41.0643L188.394 40.0435ZM216.51 54.8228L217.586 54.8407L217.587 54.8206L217.586 54.8004L216.51 54.8228ZM216.582 83.6604V84.7365H217.691L217.658 83.6283L216.582 83.6604ZM199.568 83.6604L198.492 83.6509L198.483 84.7365H199.568V83.6604ZM199.64 75.5138L198.564 75.5022L198.564 75.5043L199.64 75.5138ZM199.64 35.2132L198.564 35.2232L198.564 35.2254L199.64 35.2132ZM199.568 27.4271V26.351H198.482L198.492 27.437L199.568 27.4271ZM216.582 27.4271L217.658 27.4422L217.674 26.351H216.582V27.4271ZM180.618 40.5811C180.452 40.9945 180.397 41.4569 180.397 41.918H182.549C182.549 41.6101 182.589 41.4476 182.616 41.3804L180.618 40.5811ZM180.397 41.918C180.397 43.0307 180.872 43.967 181.754 44.6453L183.066 42.9395C182.698 42.6566 182.549 42.3432 182.549 41.918H180.397ZM181.828 44.6975C182.735 45.2807 183.876 45.5173 185.149 45.5173V43.3652C184.116 43.3652 183.43 43.1692 182.992 42.8873L181.828 44.6975ZM185.149 45.5173H194.666V43.3652H185.149V45.5173ZM193.59 44.4413V57.2019H195.742V44.4413H193.59ZM194.756 56.1297C190.758 55.7924 187.56 55.5981 185.171 55.5493L185.127 57.701C187.449 57.7483 190.596 57.9385 194.575 58.2741L194.756 56.1297ZM184.073 56.6309C184.122 65.5821 184.314 74.6052 184.651 83.7003L186.801 83.6206C186.465 74.5479 186.273 65.5475 186.225 56.6194L184.073 56.6309ZM185.726 82.5844H168.64V84.7365H185.726V82.5844ZM169.716 83.6695C169.764 77.9933 169.788 69.0498 169.788 56.8414H167.636C167.636 69.049 167.612 77.9848 167.564 83.6513L169.716 83.6695ZM168.661 55.7666C167.633 55.8156 165.888 55.9369 163.437 56.1292L163.605 58.2746C166.057 58.0824 167.772 57.9634 168.763 57.9162L168.661 55.7666ZM164.597 57.2019V44.4413H162.445V57.2019H164.597ZM163.521 45.5173H168.64V43.3652H163.521V45.5173ZM169.716 44.4413V43.0715H167.564V44.4413H169.716ZM169.716 43.0715C169.716 39.47 170.454 36.4699 171.877 34.0241L170.017 32.9418C168.364 35.7829 167.564 39.1752 167.564 43.0715H169.716ZM171.877 34.0241C173.311 31.5586 175.272 29.712 177.772 28.4616L176.81 26.5367C173.928 27.9778 171.658 30.1204 170.017 32.9418L171.877 34.0241ZM177.766 28.4649C180.337 27.2018 183.295 26.5565 186.663 26.5565V24.4045C183.015 24.4045 179.725 25.1049 176.817 26.5333L177.766 28.4649ZM186.663 26.5565C189.394 26.5565 192.155 26.9498 194.949 27.7414L195.536 25.6708C192.562 24.8283 189.604 24.4045 186.663 24.4045V26.5565ZM194.205 26.4218C193.232 29.9712 192.265 34.4021 191.3 39.7068L193.417 40.0918C194.376 34.8228 195.33 30.4582 196.28 26.9904L194.205 26.4218ZM191.304 39.6883L190.871 41.8511L192.981 42.2732L193.414 40.1104L191.304 39.6883ZM192.63 41.2478C191.468 40.2447 190.168 39.5007 188.734 39.0227L188.053 41.0643C189.215 41.4515 190.27 42.0532 191.223 42.8765L192.63 41.2478ZM188.78 39.0392C187.438 38.5233 186.153 38.2465 184.933 38.2465V40.3986C185.828 40.3986 186.85 40.6025 188.007 41.0478L188.78 39.0392ZM184.933 38.2465C183.955 38.2465 183.057 38.4086 182.289 38.7927L183.252 40.7176C183.637 40.5249 184.181 40.3986 184.933 40.3986V38.2465ZM182.289 38.7927C181.505 39.1848 180.906 39.7875 180.606 40.613L182.628 41.3485C182.712 41.1166 182.882 40.9022 183.252 40.7176L182.289 38.7927ZM215.434 54.8049C215.386 57.698 215.362 62.1272 215.362 68.0881H217.514C217.514 62.1294 217.538 57.7151 217.586 54.8407L215.434 54.8049ZM215.362 68.0881C215.362 75.2505 215.41 80.4551 215.507 83.6925L217.658 83.6283C217.562 80.4254 217.514 75.2484 217.514 68.0881H215.362ZM216.582 82.5844H199.568V84.7365H216.582V82.5844ZM200.644 83.67L200.716 75.5233L198.564 75.5043L198.492 83.6509L200.644 83.67ZM200.716 75.5254C200.812 66.5845 200.861 59.6829 200.861 54.8228H198.708C198.708 59.6713 198.66 66.5638 198.564 75.5022L200.716 75.5254ZM200.861 54.8228C200.861 50.2027 200.812 43.6614 200.716 35.201L198.564 35.2254C198.66 43.6832 198.708 50.2149 198.708 54.8228H200.861ZM200.716 35.2033L200.644 27.4171L198.492 27.437L198.564 35.2232L200.716 35.2033ZM199.568 28.5031H216.582V26.351H199.568V28.5031ZM215.507 27.4119C215.41 34.2393 215.362 39.8202 215.362 44.1529H217.514C217.514 39.8343 217.562 34.2646 217.658 27.4422L215.507 27.4119ZM215.362 44.1529C215.362 48.9604 215.386 52.5264 215.435 54.8452L217.586 54.8004C217.538 52.5052 217.514 48.9579 217.514 44.1529H215.362ZM227.767 78.758L227.01 79.5237L227.02 79.5331L227.767 78.758ZM227.767 49.1995L227.02 48.4244L227.015 48.429L227.767 49.1995ZM259.776 46.3157L259.3 47.2806L259.308 47.2843L259.315 47.2879L259.776 46.3157ZM268.067 53.5972L267.136 54.1358L267.139 54.1421L268.067 53.5972ZM264.535 78.758L263.812 77.961L263.807 77.9652L264.535 78.758ZM253.216 58.1391L252.455 58.9L252.461 58.906L252.467 58.912L253.216 58.1391ZM239.374 58.067L238.6 57.3187L239.374 58.067ZM239.374 69.8905L240.147 69.1422L239.374 69.8905ZM245.934 83.3053C237.852 83.3053 232.123 81.4589 228.513 77.9829L227.02 79.5331C231.197 83.555 237.579 85.4574 245.934 85.4574V83.3053ZM228.523 77.9924C224.911 74.4262 223.075 69.7423 223.075 63.8346H220.923C220.923 70.2309 222.932 75.4959 227.011 79.5237L228.523 77.9924ZM223.075 63.8346C223.075 58.079 224.906 53.4913 228.518 49.9699L227.015 48.429C222.937 52.4054 220.923 57.5744 220.923 63.8346H223.075ZM228.513 49.9746C232.123 46.4986 237.852 44.6522 245.934 44.6522V42.5001C237.579 42.5001 231.197 44.4025 227.02 48.4244L228.513 49.9746ZM245.934 44.6522C251.35 44.6522 255.789 45.5478 259.3 47.2806L260.253 45.3508C256.362 43.4309 251.573 42.5001 245.934 42.5001V44.6522ZM259.315 47.2879C262.901 48.9888 265.484 51.2788 267.136 54.1358L268.999 53.0586C267.094 49.7636 264.15 47.1992 260.238 45.3435L259.315 47.2879ZM267.139 54.1421C268.813 56.9915 269.659 60.2131 269.659 63.8346H271.811C271.811 59.8621 270.878 56.2588 268.995 53.0523L267.139 54.1421ZM269.659 63.8346C269.659 69.7686 267.694 74.44 263.812 77.961L265.257 79.5551C269.642 75.5783 271.811 70.3007 271.811 63.8346H269.659ZM263.807 77.9652C259.999 81.4593 254.111 83.3053 245.934 83.3053V85.4574C254.387 85.4574 260.899 83.5546 265.262 79.5508L263.807 77.9652ZM246.223 73.2014C249.499 73.2014 252.15 72.4213 253.964 70.6633L252.467 69.1176C251.206 70.3395 249.195 71.0493 246.223 71.0493V73.2014ZM253.964 70.6633C255.747 68.9367 256.599 66.6444 256.599 63.9067H254.447C254.447 66.1674 253.761 67.8644 252.467 69.1176L253.964 70.6633ZM256.599 63.9067C256.599 61.2924 255.734 59.0802 253.964 57.3663L252.467 58.912C253.774 60.1779 254.447 61.8108 254.447 63.9067H256.599ZM253.977 57.3783C252.163 55.5645 249.507 54.7561 246.223 54.7561V56.9081C249.187 56.9081 251.193 57.6378 252.455 58.9L253.977 57.3783ZM246.223 54.7561C242.954 54.7561 240.328 55.5334 238.6 57.3187L240.147 58.8153C241.303 57.6208 243.244 56.9081 246.223 56.9081V54.7561ZM238.6 57.3187C236.934 59.0413 236.135 61.2721 236.135 63.9067H238.287C238.287 61.735 238.93 60.0727 240.147 58.8153L238.6 57.3187ZM236.135 63.9067C236.135 66.6242 236.926 68.9082 238.6 70.6388L240.147 69.1422C238.938 67.8928 238.287 66.1876 238.287 63.9067H236.135ZM238.6 70.6388C240.328 72.4241 242.954 73.2014 246.223 73.2014V71.0493C243.244 71.0493 241.303 70.3367 240.147 69.1422L238.6 70.6388ZM313.291 72.5579L312.226 72.7101L314.342 72.7885L313.291 72.5579ZM319.491 44.2971V43.221H318.626L318.44 44.0665L319.491 44.2971ZM333.838 44.2971L334.892 44.5114L335.155 43.221H333.838V44.2971ZM325.835 83.6604V84.7365H326.715L326.89 83.8748L325.835 83.6604ZM306.586 83.6604L305.542 83.9185L305.744 84.7365H306.586V83.6604ZM302.044 65.2764L303.089 65.0184L302.106 61.0416L301.008 64.9878L302.044 65.2764ZM296.926 83.6604V84.7365H297.743L297.962 83.9491L296.926 83.6604ZM278.397 83.6604L277.343 83.8748L277.518 84.7365H278.397V83.6604ZM270.395 44.2971V43.221H269.078L269.341 44.5114L270.395 44.2971ZM284.742 44.2971L285.793 44.0685L285.609 43.221H284.742V44.2971ZM290.87 72.4858L289.818 72.7144L291.934 72.6437L290.87 72.4858ZM295.051 44.2971V43.221H294.123L293.987 44.1392L295.051 44.2971ZM309.254 44.2971L310.319 44.1449L310.187 43.221H309.254V44.2971ZM314.342 72.7885L320.542 44.5277L318.44 44.0665L312.24 72.3274L314.342 72.7885ZM319.491 45.3731H333.838V43.221H319.491V45.3731ZM332.783 44.0827L324.781 83.4461L326.89 83.8748L334.892 44.5114L332.783 44.0827ZM325.835 82.5844H306.586V84.7365H325.835V82.5844ZM307.631 83.4024L303.089 65.0184L301 65.5345L305.542 83.9185L307.631 83.4024ZM301.008 64.9878L295.889 83.3718L297.962 83.9491L303.081 65.5651L301.008 64.9878ZM296.926 82.5844H278.397V84.7365H296.926V82.5844ZM279.452 83.4461L271.449 44.0827L269.341 44.5114L277.343 83.8748L279.452 83.4461ZM270.395 45.3731H284.742V43.221H270.395V45.3731ZM283.69 44.5257L289.818 72.7144L291.921 72.2573L285.793 44.0685L283.69 44.5257ZM291.934 72.6437L296.116 44.455L293.987 44.1392L289.805 72.328L291.934 72.6437ZM295.051 45.3731H309.254V43.221H295.051V45.3731ZM308.189 44.4492L312.226 72.7101L314.356 72.4058L310.319 44.1449L308.189 44.4492Z" fill="white" mask="url(#path-1-outside-1_1_58)"/>
<g filter="url(#filter0_d_1_58)">
<path d="M3 30.6604V83.6604H53" stroke="#B0FF37" stroke-width="4" stroke-linecap="round"/>
</g>
<defs>
<filter id="filter0_d_1_58" x="1" y="28.6604" width="58" height="61" filterUnits="userSpaceOnUse" color-interpolation-filters="sRGB">
<feFlood flood-opacity="0" result="BackgroundImageFix"/>
<feColorMatrix in="SourceAlpha" type="matrix" values="0 0 0 0 0 0 0 0 0 0 0 0 0 0 0 0 0 0 127 0" result="hardAlpha"/>
<feOffset dx="4" dy="4"/>
<feComposite in2="hardAlpha" operator="out"/>
<feColorMatrix type="matrix" values="0 0 0 0 0 0 0 0 0 0 0 0 0 0 0 0 0 0 1 0"/>
<feBlend mode="normal" in2="BackgroundImageFix" result="effect1_dropShadow_1_58"/>
<feBlend mode="normal" in="SourceGraphic" in2="effect1_dropShadow_1_58" result="shape"/>
</filter>
</defs>
</svg>
